<svg width="24" height="24" viewBox="0 0 24 24" fill="none" xmlns="http://www.w3.org/2000/svg">
<path fill-rule="evenodd" clip-rule="evenodd" d="M10.5 4.89998C7.4072 4.89998 4.9 7.40718 4.9 10.5C4.9 13.5928 7.4072 16.1 10.5 16.1C12.0466 16.1 13.4454 15.4742 14.4598 14.4598C15.4742 13.4454 16.1 12.0466 16.1 10.5C16.1 7.40718 13.5928 4.89998 10.5 4.89998ZM3.1 10.5C3.1 6.41307 6.41309 3.09998 10.5 3.09998C14.5869 3.09998 17.9 6.41307 17.9 10.5C17.9 12.2187 17.3132 13.8016 16.3303 15.0575L20.6364 19.3636C20.9879 19.7151 20.9879 20.2849 20.6364 20.6364C20.2849 20.9878 19.7151 20.9878 19.3636 20.6364L15.0575 16.3303C13.8016 17.3132 12.2187 17.9 10.5 17.9C6.41309 17.9 3.1 14.5869 3.1 10.5Z" fill="#768298"/>
</svg>
